<?xml version="1.0" standalone="no"?>
<!DOCTYPE svg PUBLIC "-//W3C//DTD SVG 20010904//EN"
 "http://www.w3.org/TR/2001/REC-SVG-20010904/DTD/svg10.dtd">
<svg version="1.0" xmlns="http://www.w3.org/2000/svg"
 width="360.000000pt" height="360.000000pt" viewBox="0 0 360.000000 360.000000"
 preserveAspectRatio="xMidYMid meet">
<metadata>
Created by potrace 1.14, written by Peter Selinger 2001-2017
</metadata>
<g transform="translate(0.000000,360.000000) scale(0.100000,-0.100000)"
fill="#000000" stroke="none">
<path d="M0 1800 l0 -1800 1800 0 1800 0 0 1800 0 1800 -1800 0 -1800 0 0
-1800z m2420 588 c164 -81 255 -280 207 -455 -8 -29 -10 -53 -5 -53 22 0 123
-110 151 -165 29 -56 31 -67 32 -165 0 -99 -2 -109 -33 -172 -38 -78 -110
-148 -192 -187 l-55 -26 -327 -3 c-357 -4 -381 -1 -450 51 -38 29 -57 61 -179
305 l-135 272 -77 -161 c-42 -89 -77 -166 -77 -170 0 -5 50 -9 111 -9 l112 0
-6 -49 c-10 -85 -62 -160 -146 -209 l-46 -27 -248 -3 c-137 -2 -247 0 -245 5
3 4 25 51 51 103 25 52 160 328 301 614 141 285 256 522 256 527 0 6 193 8
473 7 l472 -3 55 -27z"/>
<path d="M1833 2073 c19 -38 42 -85 52 -105 l17 -38 185 0 c170 0 188 2 219
21 59 36 66 119 12 164 l-30 25 -244 0 -244 0 33 -67z"/>
<path d="M1834 1618 c7 -18 28 -63 47 -100 l33 -68 282 0 281 0 26 24 c48 44
48 108 0 152 l-26 24 -329 0 -328 0 14 -32z"/>
</g>
</svg>
